# MagicaVoxel @ Ephtracy

# group
g Gun2

# material
mtllib Gun2.mtl
usemtl palette

# normals
vn -1 0 0
vn 1 0 0
vn 0 0 1
vn 0 0 -1
vn 0 -1 0
vn 0 1 0

# texcoords
vt 0.0214844 0.5
vt 0.0800781 0.5

# verts
v -0.5 1 -0
v -0.5 1 -2
v -0.5 1 -4
v -0.5 1 -5
v -0.5 2 -3
v -0.5 2 -4
v -0.5 2 -5
v -0.5 2 -6
v -0.5 3 6
v -0.5 3 -0
v -0.5 3 -2
v -0.5 3 -3
v -0.5 3 -4
v -0.5 3 -5
v -0.5 3 -6
v -0.5 3 -8
v -0.5 4 8
v -0.5 4 6
v -0.5 4 -2
v -0.5 5 8
v -0.5 5 6
v -0.5 5 5
v -0.5 5 -1
v -0.5 5 -2
v -0.5 5 -5
v -0.5 5 -8
v -0.5 6 6
v -0.5 6 5
v -0.5 6 -1
v -0.5 6 -5
v 0.5 1 -0
v 0.5 1 -2
v 0.5 1 -4
v 0.5 1 -5
v 0.5 2 -3
v 0.5 2 -4
v 0.5 2 -5
v 0.5 2 -6
v 0.5 3 6
v 0.5 3 -0
v 0.5 3 -2
v 0.5 3 -3
v 0.5 3 -4
v 0.5 3 -5
v 0.5 3 -6
v 0.5 3 -8
v 0.5 4 8
v 0.5 4 6
v 0.5 4 -2
v 0.5 5 8
v 0.5 5 6
v 0.5 5 5
v 0.5 5 -1
v 0.5 5 -2
v 0.5 5 -5
v 0.5 5 -8
v 0.5 6 6
v 0.5 6 5
v 0.5 6 -1
v 0.5 6 -5
v -0.5 4 8
v -0.5 5 8
v 0.5 4 8
v 0.5 5 8
v -0.5 3 6
v -0.5 4 6
v -0.5 5 6
v -0.5 6 6
v 0.5 3 6
v 0.5 4 6
v 0.5 5 6
v 0.5 6 6
v -0.5 1 -0
v -0.5 3 -0
v 0.5 1 -0
v 0.5 3 -0
v -0.5 5 -1
v -0.5 6 -1
v 0.5 5 -1
v 0.5 6 -1
v -0.5 2 -3
v -0.5 3 -3
v 0.5 2 -3
v 0.5 3 -3
v -0.5 1 -4
v -0.5 2 -4
v 0.5 1 -4
v 0.5 2 -4
v -0.5 2 -5
v -0.5 3 -5
v 0.5 2 -5
v 0.5 3 -5
v -0.5 5 5
v -0.5 6 5
v 0.5 5 5
v 0.5 6 5
v -0.5 1 -2
v -0.5 3 -2
v 0.5 1 -2
v 0.5 3 -2
v -0.5 2 -4
v -0.5 3 -4
v 0.5 2 -4
v 0.5 3 -4
v -0.5 1 -5
v -0.5 2 -5
v -0.5 5 -5
v -0.5 6 -5
v 0.5 1 -5
v 0.5 2 -5
v 0.5 5 -5
v 0.5 6 -5
v -0.5 2 -6
v -0.5 3 -6
v 0.5 2 -6
v 0.5 3 -6
v -0.5 3 -8
v -0.5 5 -8
v 0.5 3 -8
v 0.5 5 -8
v -0.5 1 -0
v 0.5 1 -0
v -0.5 1 -2
v 0.5 1 -2
v -0.5 1 -4
v 0.5 1 -4
v -0.5 1 -5
v 0.5 1 -5
v -0.5 2 -3
v 0.5 2 -3
v -0.5 2 -4
v 0.5 2 -4
v -0.5 2 -5
v 0.5 2 -5
v -0.5 2 -6
v 0.5 2 -6
v -0.5 3 6
v 0.5 3 6
v -0.5 3 -0
v 0.5 3 -0
v -0.5 3 -2
v 0.5 3 -2
v -0.5 3 -3
v 0.5 3 -3
v -0.5 3 -4
v 0.5 3 -4
v -0.5 3 -5
v 0.5 3 -5
v -0.5 3 -6
v 0.5 3 -6
v -0.5 3 -8
v 0.5 3 -8
v -0.5 4 8
v 0.5 4 8
v -0.5 4 6
v 0.5 4 6
v -0.5 2 -4
v 0.5 2 -4
v -0.5 2 -5
v 0.5 2 -5
v -0.5 5 8
v 0.5 5 8
v -0.5 5 6
v 0.5 5 6
v -0.5 5 5
v 0.5 5 5
v -0.5 5 -1
v 0.5 5 -1
v -0.5 5 -5
v 0.5 5 -5
v -0.5 5 -8
v 0.5 5 -8
v -0.5 6 6
v 0.5 6 6
v -0.5 6 5
v 0.5 6 5
v -0.5 6 -1
v 0.5 6 -1
v -0.5 6 -5
v 0.5 6 -5

# faces
f 6/2/1 4/2/1 3/2/1
f 7/2/1 4/2/1 6/2/1
f 10/1/1 2/1/1 1/1/1
f 11/1/1 2/1/1 10/1/1
f 12/2/1 6/2/1 5/2/1
f 13/2/1 6/2/1 12/2/1
f 14/2/1 8/2/1 7/2/1
f 15/2/1 8/2/1 14/2/1
f 18/2/1 13/2/1 12/2/1
f 18/2/1 16/2/1 15/2/1
f 18/2/1 15/2/1 14/2/1
f 18/2/1 14/2/1 13/2/1
f 18/2/1 11/2/1 10/2/1
f 18/2/1 12/2/1 11/2/1
f 18/2/1 10/2/1 9/2/1
f 19/2/1 16/2/1 18/2/1
f 20/1/1 18/1/1 17/1/1
f 20/1/1 19/1/1 18/1/1
f 21/1/1 19/1/1 20/1/1
f 22/1/1 19/1/1 21/1/1
f 23/1/1 19/1/1 22/1/1
f 24/2/1 16/2/1 19/2/1
f 24/1/1 19/1/1 23/1/1
f 25/2/1 16/2/1 24/2/1
f 26/2/1 16/2/1 25/2/1
f 27/1/1 22/1/1 21/1/1
f 28/1/1 22/1/1 27/1/1
f 29/1/1 25/1/1 24/1/1
f 29/1/1 24/1/1 23/1/1
f 30/1/1 25/1/1 29/1/1
f 33/2/2 34/2/2 36/2/2
f 36/2/2 34/2/2 37/2/2
f 31/1/2 32/1/2 40/1/2
f 40/1/2 32/1/2 41/1/2
f 35/2/2 36/2/2 42/2/2
f 42/2/2 36/2/2 43/2/2
f 37/2/2 38/2/2 44/2/2
f 44/2/2 38/2/2 45/2/2
f 42/2/2 43/2/2 48/2/2
f 45/2/2 46/2/2 48/2/2
f 44/2/2 45/2/2 48/2/2
f 43/2/2 44/2/2 48/2/2
f 40/2/2 41/2/2 48/2/2
f 41/2/2 42/2/2 48/2/2
f 39/2/2 40/2/2 48/2/2
f 48/2/2 46/2/2 49/2/2
f 47/1/2 48/1/2 50/1/2
f 48/1/2 49/1/2 50/1/2
f 50/1/2 49/1/2 51/1/2
f 51/1/2 49/1/2 52/1/2
f 52/1/2 49/1/2 53/1/2
f 49/2/2 46/2/2 54/2/2
f 53/1/2 49/1/2 54/1/2
f 54/2/2 46/2/2 55/2/2
f 55/2/2 46/2/2 56/2/2
f 51/1/2 52/1/2 57/1/2
f 57/1/2 52/1/2 58/1/2
f 54/1/2 55/1/2 59/1/2
f 53/1/2 54/1/2 59/1/2
f 59/1/2 55/1/2 60/1/2
f 63/1/3 62/1/3 61/1/3
f 64/1/3 62/1/3 63/1/3
f 69/2/3 66/2/3 65/2/3
f 70/2/3 66/2/3 69/2/3
f 71/1/3 68/1/3 67/1/3
f 72/1/3 68/1/3 71/1/3
f 75/1/3 74/1/3 73/1/3
f 76/1/3 74/1/3 75/1/3
f 79/1/3 78/1/3 77/1/3
f 80/1/3 78/1/3 79/1/3
f 83/2/3 82/2/3 81/2/3
f 84/2/3 82/2/3 83/2/3
f 87/2/3 86/2/3 85/2/3
f 88/2/3 86/2/3 87/2/3
f 91/2/3 90/2/3 89/2/3
f 92/2/3 90/2/3 91/2/3
f 93/1/4 94/1/4 95/1/4
f 95/1/4 94/1/4 96/1/4
f 97/1/4 98/1/4 99/1/4
f 99/1/4 98/1/4 100/1/4
f 101/2/4 102/2/4 103/2/4
f 103/2/4 102/2/4 104/2/4
f 105/2/4 106/2/4 109/2/4
f 109/2/4 106/2/4 110/2/4
f 107/1/4 108/1/4 111/1/4
f 111/1/4 108/1/4 112/1/4
f 113/2/4 114/2/4 115/2/4
f 115/2/4 114/2/4 116/2/4
f 117/2/4 118/2/4 119/2/4
f 119/2/4 118/2/4 120/2/4
f 123/1/5 122/1/5 121/1/5
f 124/1/5 122/1/5 123/1/5
f 127/2/5 126/2/5 125/2/5
f 128/2/5 126/2/5 127/2/5
f 131/2/5 130/2/5 129/2/5
f 132/2/5 130/2/5 131/2/5
f 135/2/5 134/2/5 133/2/5
f 136/2/5 134/2/5 135/2/5
f 139/2/5 138/2/5 137/2/5
f 140/2/5 138/2/5 139/2/5
f 143/2/5 142/2/5 141/2/5
f 144/2/5 142/2/5 143/2/5
f 147/2/5 146/2/5 145/2/5
f 148/2/5 146/2/5 147/2/5
f 151/2/5 150/2/5 149/2/5
f 152/2/5 150/2/5 151/2/5
f 155/1/5 154/1/5 153/1/5
f 156/1/5 154/1/5 155/1/5
f 157/2/6 158/2/6 159/2/6
f 159/2/6 158/2/6 160/2/6
f 161/1/6 162/1/6 163/1/6
f 163/1/6 162/1/6 164/1/6
f 165/1/6 166/1/6 167/1/6
f 167/1/6 166/1/6 168/1/6
f 169/2/6 170/2/6 171/2/6
f 171/2/6 170/2/6 172/2/6
f 173/1/6 174/1/6 175/1/6
f 175/1/6 174/1/6 176/1/6
f 177/1/6 178/1/6 179/1/6
f 179/1/6 178/1/6 180/1/6
