# MagicaVoxel @ Ephtracy

# group
g BirdBody

# material
mtllib BirdBody.mtl
usemtl palette

# normals
vn -1 0 0
vn 1 0 0
vn 0 0 1
vn 0 0 -1
vn 0 -1 0
vn 0 1 0

# texcoords
vt 0.00976563 0.5
vt 0.0136719 0.5
vt 0.0332031 0.5
vt 0.166016 0.5

# verts
v -4.5 8 1.5
v -4.5 8 -1.5
v -4.5 9 1.5
v -4.5 9 -1.5
v -3.5 3 1.5
v -3.5 3 -2.5
v -3.5 6 2.5
v -3.5 6 1.5
v -3.5 8 1.5
v -3.5 8 -1.5
v -3.5 9 2.5
v -3.5 9 1.5
v -3.5 9 -1.5
v -3.5 9 -2.5
v -2.5 0 0.5
v -2.5 0 -1.5
v -2.5 1 1.5
v -2.5 1 0.5
v -2.5 1 -1.5
v -2.5 1 -2.5
v -2.5 3 2.5
v -2.5 3 1.5
v -2.5 3 -2.5
v -2.5 3 -3.5
v -2.5 6 3.5
v -2.5 6 2.5
v -2.5 6 1.5
v -2.5 8 3.5
v -2.5 8 2.5
v -2.5 9 1.5
v -2.5 9 -2.5
v -2.5 9 -3.5
v -2.5 10 1.5
v -2.5 10 -2.5
v -1.5 0 1.5
v -1.5 0 0.5
v -1.5 0 -1.5
v -1.5 0 -2.5
v -1.5 1 1.5
v -1.5 1 0.5
v -1.5 1 -1.5
v -1.5 1 -2.5
v 1.5 0 1.5
v 1.5 0 0.5
v 1.5 0 -1.5
v 1.5 0 -2.5
v 1.5 1 1.5
v 1.5 1 0.5
v 1.5 1 -1.5
v 1.5 1 -2.5
v 2.5 0 0.5
v 2.5 0 -1.5
v 2.5 1 1.5
v 2.5 1 0.5
v 2.5 1 -1.5
v 2.5 1 -2.5
v 2.5 3 2.5
v 2.5 3 1.5
v 2.5 3 -2.5
v 2.5 3 -3.5
v 2.5 6 3.5
v 2.5 6 2.5
v 2.5 6 1.5
v 2.5 8 3.5
v 2.5 8 2.5
v 2.5 9 1.5
v 2.5 9 -2.5
v 2.5 9 -3.5
v 2.5 10 1.5
v 2.5 10 -2.5
v 3.5 3 1.5
v 3.5 3 -2.5
v 3.5 6 2.5
v 3.5 6 1.5
v 3.5 8 1.5
v 3.5 8 -1.5
v 3.5 9 2.5
v 3.5 9 1.5
v 3.5 9 -1.5
v 3.5 9 -2.5
v 4.5 8 1.5
v 4.5 8 -1.5
v 4.5 9 1.5
v 4.5 9 -1.5
v -2.5 6 3.5
v -2.5 8 3.5
v -1.5 6 3.5
v -1.5 8 3.5
v -0.5 6 3.5
v -0.5 7 3.5
v 0.5 6 3.5
v 0.5 7 3.5
v 1.5 6 3.5
v 1.5 8 3.5
v 2.5 6 3.5
v 2.5 8 3.5
v -3.5 6 2.5
v -3.5 9 2.5
v -2.5 3 2.5
v -2.5 6 2.5
v -2.5 8 2.5
v -1.5 6 2.5
v -1.5 8 2.5
v -0.5 5 2.5
v -0.5 6 2.5
v 0.5 5 2.5
v 0.5 6 2.5
v 1.5 6 2.5
v 1.5 8 2.5
v 2.5 3 2.5
v 2.5 6 2.5
v 2.5 8 2.5
v 3.5 6 2.5
v 3.5 9 2.5
v -4.5 8 1.5
v -4.5 9 1.5
v -3.5 3 1.5
v -3.5 6 1.5
v -3.5 8 1.5
v -3.5 9 1.5
v -2.5 1 1.5
v -2.5 3 1.5
v -2.5 6 1.5
v -2.5 9 1.5
v -2.5 10 1.5
v -1.5 0 1.5
v -1.5 1 1.5
v 1.5 0 1.5
v 1.5 1 1.5
v 2.5 1 1.5
v 2.5 3 1.5
v 2.5 6 1.5
v 2.5 9 1.5
v 2.5 10 1.5
v 3.5 3 1.5
v 3.5 6 1.5
v 3.5 8 1.5
v 3.5 9 1.5
v 4.5 8 1.5
v 4.5 9 1.5
v -2.5 0 0.5
v -2.5 1 0.5
v -1.5 0 0.5
v -1.5 1 0.5
v 1.5 0 0.5
v 1.5 1 0.5
v 2.5 0 0.5
v 2.5 1 0.5
v -4.5 8 -1.5
v -4.5 9 -1.5
v -3.5 8 -1.5
v -3.5 9 -1.5
v -2.5 0 -1.5
v -2.5 1 -1.5
v -1.5 0 -1.5
v -1.5 1 -1.5
v 1.5 0 -1.5
v 1.5 1 -1.5
v 2.5 0 -1.5
v 2.5 1 -1.5
v 3.5 8 -1.5
v 3.5 9 -1.5
v 4.5 8 -1.5
v 4.5 9 -1.5
v -3.5 3 -2.5
v -3.5 9 -2.5
v -2.5 1 -2.5
v -2.5 3 -2.5
v -2.5 9 -2.5
v -2.5 10 -2.5
v -1.5 0 -2.5
v -1.5 1 -2.5
v 1.5 0 -2.5
v 1.5 1 -2.5
v 2.5 1 -2.5
v 2.5 3 -2.5
v 2.5 9 -2.5
v 2.5 10 -2.5
v 3.5 3 -2.5
v 3.5 9 -2.5
v -2.5 3 -3.5
v -2.5 9 -3.5
v 2.5 3 -3.5
v 2.5 9 -3.5
v -1.5 0 1.5
v 1.5 0 1.5
v -2.5 0 0.5
v -1.5 0 0.5
v 1.5 0 0.5
v 2.5 0 0.5
v -2.5 0 -1.5
v -1.5 0 -1.5
v 1.5 0 -1.5
v 2.5 0 -1.5
v -1.5 0 -2.5
v 1.5 0 -2.5
v -2.5 1 1.5
v -1.5 1 1.5
v 1.5 1 1.5
v 2.5 1 1.5
v -2.5 1 0.5
v -1.5 1 0.5
v 1.5 1 0.5
v 2.5 1 0.5
v -2.5 1 -1.5
v -1.5 1 -1.5
v 1.5 1 -1.5
v 2.5 1 -1.5
v -2.5 1 -2.5
v -1.5 1 -2.5
v 1.5 1 -2.5
v 2.5 1 -2.5
v -2.5 3 2.5
v 2.5 3 2.5
v -3.5 3 1.5
v -2.5 3 1.5
v 2.5 3 1.5
v 3.5 3 1.5
v -3.5 3 -2.5
v -2.5 3 -2.5
v 2.5 3 -2.5
v 3.5 3 -2.5
v -2.5 3 -3.5
v 2.5 3 -3.5
v -2.5 6 3.5
v -1.5 6 3.5
v -0.5 6 3.5
v 0.5 6 3.5
v 1.5 6 3.5
v 2.5 6 3.5
v -3.5 6 2.5
v -2.5 6 2.5
v -1.5 6 2.5
v -0.5 6 2.5
v 0.5 6 2.5
v 1.5 6 2.5
v 2.5 6 2.5
v 3.5 6 2.5
v -3.5 6 1.5
v -2.5 6 1.5
v 2.5 6 1.5
v 3.5 6 1.5
v -4.5 8 1.5
v -3.5 8 1.5
v 3.5 8 1.5
v 4.5 8 1.5
v -4.5 8 -1.5
v -3.5 8 -1.5
v 3.5 8 -1.5
v 4.5 8 -1.5
v -2.5 8 3.5
v -1.5 8 3.5
v 1.5 8 3.5
v 2.5 8 3.5
v -2.5 8 2.5
v -1.5 8 2.5
v 1.5 8 2.5
v 2.5 8 2.5
v -3.5 9 2.5
v 3.5 9 2.5
v -4.5 9 1.5
v -3.5 9 1.5
v -2.5 9 1.5
v 2.5 9 1.5
v 3.5 9 1.5
v 4.5 9 1.5
v -4.5 9 -1.5
v -3.5 9 -1.5
v 3.5 9 -1.5
v 4.5 9 -1.5
v -3.5 9 -2.5
v -2.5 9 -2.5
v 2.5 9 -2.5
v 3.5 9 -2.5
v -2.5 9 -3.5
v 2.5 9 -3.5
v -2.5 10 1.5
v 2.5 10 1.5
v -2.5 10 -2.5
v 2.5 10 -2.5

# faces
f 3/2/1 2/2/1 1/2/1
f 4/2/1 2/2/1 3/2/1
f 8/2/1 6/2/1 5/2/1
f 9/2/1 6/2/1 8/2/1
f 9/2/1 8/2/1 7/2/1
f 10/2/1 6/2/1 9/2/1
f 11/2/1 9/2/1 7/2/1
f 12/2/1 9/2/1 11/2/1
f 13/2/1 6/2/1 10/2/1
f 14/2/1 6/2/1 13/2/1
f 18/4/1 16/4/1 15/4/1
f 19/4/1 16/4/1 18/4/1
f 22/2/1 18/2/1 17/2/1
f 22/2/1 20/2/1 19/2/1
f 22/2/1 19/2/1 18/2/1
f 23/2/1 20/2/1 22/2/1
f 26/2/1 22/2/1 21/2/1
f 27/2/1 22/2/1 26/2/1
f 28/2/1 26/2/1 25/2/1
f 29/2/1 26/2/1 28/2/1
f 31/2/1 24/2/1 23/2/1
f 32/2/1 24/2/1 31/2/1
f 33/4/1 31/4/1 30/4/1
f 34/4/1 31/4/1 33/4/1
f 39/4/1 36/4/1 35/4/1
f 40/4/1 36/4/1 39/4/1
f 41/4/1 38/4/1 37/4/1
f 42/4/1 38/4/1 41/4/1
f 43/4/2 44/4/2 47/4/2
f 47/4/2 44/4/2 48/4/2
f 45/4/2 46/4/2 49/4/2
f 49/4/2 46/4/2 50/4/2
f 51/4/2 52/4/2 54/4/2
f 54/4/2 52/4/2 55/4/2
f 53/2/2 54/2/2 58/2/2
f 55/2/2 56/2/2 58/2/2
f 54/2/2 55/2/2 58/2/2
f 58/2/2 56/2/2 59/2/2
f 57/2/2 58/2/2 62/2/2
f 62/2/2 58/2/2 63/2/2
f 61/2/2 62/2/2 64/2/2
f 64/2/2 62/2/2 65/2/2
f 59/2/2 60/2/2 67/2/2
f 67/2/2 60/2/2 68/2/2
f 66/4/2 67/4/2 69/4/2
f 69/4/2 67/4/2 70/4/2
f 71/2/2 72/2/2 74/2/2
f 74/2/2 72/2/2 75/2/2
f 73/2/2 74/2/2 75/2/2
f 75/2/2 72/2/2 76/2/2
f 73/2/2 75/2/2 77/2/2
f 77/2/2 75/2/2 78/2/2
f 76/2/2 72/2/2 79/2/2
f 79/2/2 72/2/2 80/2/2
f 81/2/2 82/2/2 83/2/2
f 83/2/2 82/2/2 84/2/2
f 87/2/3 86/2/3 85/2/3
f 88/2/3 86/2/3 87/2/3
f 89/3/3 88/3/3 87/3/3
f 90/3/3 88/3/3 89/3/3
f 91/1/3 90/1/3 89/1/3
f 92/3/3 88/3/3 90/3/3
f 92/1/3 90/1/3 91/1/3
f 93/3/3 92/3/3 91/3/3
f 94/3/3 88/3/3 92/3/3
f 94/3/3 92/3/3 93/3/3
f 95/2/3 94/2/3 93/2/3
f 96/2/3 94/2/3 95/2/3
f 100/2/3 98/2/3 97/2/3
f 101/2/3 98/2/3 100/2/3
f 102/2/3 100/2/3 99/2/3
f 103/2/3 98/2/3 101/2/3
f 104/2/3 102/2/3 99/2/3
f 105/2/3 102/2/3 104/2/3
f 106/2/3 104/2/3 99/2/3
f 106/3/3 105/3/3 104/3/3
f 107/3/3 105/3/3 106/3/3
f 108/2/3 107/2/3 106/2/3
f 109/2/3 98/2/3 103/2/3
f 110/2/3 108/2/3 106/2/3
f 110/2/3 106/2/3 99/2/3
f 111/2/3 108/2/3 110/2/3
f 112/2/3 98/2/3 109/2/3
f 113/2/3 112/2/3 111/2/3
f 114/2/3 98/2/3 112/2/3
f 114/2/3 112/2/3 113/2/3
f 119/2/3 116/2/3 115/2/3
f 120/2/3 116/2/3 119/2/3
f 122/2/3 118/2/3 117/2/3
f 123/2/3 118/2/3 122/2/3
f 127/2/3 122/2/3 121/2/3
f 128/4/3 127/4/3 126/4/3
f 129/2/3 122/2/3 127/2/3
f 129/4/3 127/4/3 128/4/3
f 130/2/3 122/2/3 129/2/3
f 131/2/3 122/2/3 130/2/3
f 133/4/3 125/4/3 124/4/3
f 134/4/3 125/4/3 133/4/3
f 135/2/3 132/2/3 131/2/3
f 136/2/3 132/2/3 135/2/3
f 139/2/3 138/2/3 137/2/3
f 140/2/3 138/2/3 139/2/3
f 143/4/3 142/4/3 141/4/3
f 144/4/3 142/4/3 143/4/3
f 147/4/3 146/4/3 145/4/3
f 148/4/3 146/4/3 147/4/3
f 149/2/4 150/2/4 151/2/4
f 151/2/4 150/2/4 152/2/4
f 153/4/4 154/4/4 155/4/4
f 155/4/4 154/4/4 156/4/4
f 157/4/4 158/4/4 159/4/4
f 159/4/4 158/4/4 160/4/4
f 161/2/4 162/2/4 163/2/4
f 163/2/4 162/2/4 164/2/4
f 165/2/4 166/2/4 168/2/4
f 168/2/4 166/2/4 169/2/4
f 167/2/4 168/2/4 172/2/4
f 171/4/4 172/4/4 173/4/4
f 172/2/4 168/2/4 174/2/4
f 173/4/4 172/4/4 174/4/4
f 174/2/4 168/2/4 175/2/4
f 175/2/4 168/2/4 176/2/4
f 169/4/4 170/4/4 177/4/4
f 177/4/4 170/4/4 178/4/4
f 176/2/4 177/2/4 179/2/4
f 179/2/4 177/2/4 180/2/4
f 181/2/4 182/2/4 183/2/4
f 183/2/4 182/2/4 184/2/4
f 188/4/5 186/4/5 185/4/5
f 189/4/5 186/4/5 188/4/5
f 191/4/5 188/4/5 187/4/5
f 191/4/5 190/4/5 189/4/5
f 191/4/5 189/4/5 188/4/5
f 192/4/5 190/4/5 191/4/5
f 193/4/5 190/4/5 192/4/5
f 194/4/5 190/4/5 193/4/5
f 195/4/5 193/4/5 192/4/5
f 196/4/5 193/4/5 195/4/5
f 201/2/5 198/2/5 197/2/5
f 202/2/5 198/2/5 201/2/5
f 203/2/5 200/2/5 199/2/5
f 204/2/5 200/2/5 203/2/5
f 209/2/5 206/2/5 205/2/5
f 210/2/5 206/2/5 209/2/5
f 211/2/5 208/2/5 207/2/5
f 212/2/5 208/2/5 211/2/5
f 216/2/5 214/2/5 213/2/5
f 217/2/5 214/2/5 216/2/5
f 219/2/5 216/2/5 215/2/5
f 220/2/5 216/2/5 219/2/5
f 221/2/5 218/2/5 217/2/5
f 222/2/5 218/2/5 221/2/5
f 223/2/5 221/2/5 220/2/5
f 224/2/5 221/2/5 223/2/5
f 232/2/5 226/2/5 225/2/5
f 233/3/5 227/3/5 226/3/5
f 233/2/5 226/2/5 232/2/5
f 234/1/5 228/1/5 227/1/5
f 234/3/5 227/3/5 233/3/5
f 235/3/5 229/3/5 228/3/5
f 235/1/5 228/1/5 234/1/5
f 236/2/5 230/2/5 229/2/5
f 236/3/5 229/3/5 235/3/5
f 237/2/5 230/2/5 236/2/5
f 239/2/5 232/2/5 231/2/5
f 240/2/5 232/2/5 239/2/5
f 241/2/5 238/2/5 237/2/5
f 242/2/5 238/2/5 241/2/5
f 247/2/5 244/2/5 243/2/5
f 248/2/5 244/2/5 247/2/5
f 249/2/5 246/2/5 245/2/5
f 250/2/5 246/2/5 249/2/5
f 251/2/6 252/2/6 255/2/6
f 252/3/6 253/3/6 256/3/6
f 255/2/6 252/2/6 256/2/6
f 253/2/6 254/2/6 257/2/6
f 256/3/6 253/3/6 257/3/6
f 257/2/6 254/2/6 258/2/6
f 259/2/6 260/2/6 262/2/6
f 262/2/6 260/2/6 263/2/6
f 263/2/6 260/2/6 264/2/6
f 264/2/6 260/2/6 265/2/6
f 261/2/6 262/2/6 267/2/6
f 262/2/6 263/2/6 267/2/6
f 267/2/6 263/2/6 268/2/6
f 265/2/6 266/2/6 269/2/6
f 264/2/6 265/2/6 269/2/6
f 269/2/6 266/2/6 270/2/6
f 268/2/6 263/2/6 271/2/6
f 271/2/6 263/2/6 272/2/6
f 264/2/6 269/2/6 273/2/6
f 273/2/6 269/2/6 274/2/6
f 272/2/6 273/2/6 275/2/6
f 275/2/6 273/2/6 276/2/6
f 277/4/6 278/4/6 279/4/6
f 279/4/6 278/4/6 280/4/6
