# MagicaVoxel @ Ephtracy

# group
g BirdHead

# material
mtllib BirdHead.mtl
usemtl palette

# normals
vn -1 0 0
vn 1 0 0
vn 0 0 1
vn 0 0 -1
vn 0 -1 0
vn 0 1 0

# texcoords
vt 0.00976563 0.5
vt 0.0332031 0.5
vt 0.123047 0.5
vt 0.126953 0.5
vt 0.166016 0.5
vt 0.236328 0.5
vt 0.244141 0.5

# verts
v -4.5 0 1.5
v -4.5 0 -1.5
v -4.5 1 2.5
v -4.5 1 1.5
v -4.5 1 -1.5
v -4.5 1 -2.5
v -4.5 2 -2.5
v -4.5 2 -3.5
v -4.5 3 -3.5
v -4.5 3 -4.5
v -4.5 7 2.5
v -4.5 7 1.5
v -4.5 7 -3.5
v -4.5 7 -4.5
v -4.5 8 1.5
v -4.5 8 -3.5
v -3.5 0 -1.5
v -3.5 0 -2.5
v -3.5 1 -1.5
v -3.5 1 -2.5
v -3.5 1 -3.5
v -3.5 2 -2.5
v -3.5 2 -3.5
v -3.5 2 -4.5
v -3.5 2 -5.5
v -3.5 3 -3.5
v -3.5 3 -4.5
v -3.5 6 3.5
v -3.5 6 2.5
v -3.5 7 3.5
v -3.5 7 2.5
v -3.5 7 1.5
v -3.5 7 -3.5
v -3.5 7 -4.5
v -3.5 7 -5.5
v -3.5 8 2.5
v -3.5 8 1.5
v -3.5 8 -3.5
v -3.5 8 -4.5
v -3.5 9 1.5
v -3.5 9 -3.5
v -2.5 0 2.5
v -2.5 0 1.5
v -2.5 0 -2.5
v -2.5 0 -3.5
v -2.5 1 2.5
v -2.5 1 1.5
v -2.5 1 -2.5
v -2.5 1 -3.5
v -2.5 1 -4.5
v -2.5 1 -5.5
v -2.5 2 -3.5
v -2.5 2 -4.5
v -2.5 2 -5.5
v -2.5 7 3.5
v -2.5 7 2.5
v -2.5 7 -4.5
v -2.5 7 -5.5
v -2.5 8 3.5
v -2.5 8 2.5
v -2.5 8 1.5
v -2.5 8 -3.5
v -2.5 8 -4.5
v -2.5 8 -5.5
v -2.5 9 2.5
v -2.5 9 1.5
v -2.5 9 -3.5
v -2.5 9 -4.5
v -1.5 0 -3.5
v -1.5 0 -4.5
v -1.5 0 -5.5
v -1.5 1 -3.5
v -1.5 1 -4.5
v -1.5 1 -5.5
v -0.5 1 3.5
v -0.5 1 2.5
v -0.5 2 5.5
v -0.5 2 3.5
v -0.5 2 2.5
v -0.5 3 5.5
v -0.5 3 2.5
v 0.5 6 3.5
v 0.5 6 2.5
v 0.5 7 3.5
v 0.5 7 2.5
v 1.5 5 3.5
v 1.5 5 2.5
v 1.5 6 3.5
v 1.5 6 2.5
v 2.5 4 3.5
v 2.5 4 2.5
v 2.5 5 3.5
v 2.5 5 2.5
v -2.5 6 3.5
v -2.5 6 2.5
v -2.5 7 3.5
v -2.5 7 2.5
v 0.5 1 3.5
v 0.5 1 2.5
v 0.5 2 5.5
v 0.5 2 3.5
v 0.5 2 2.5
v 0.5 3 5.5
v 0.5 3 2.5
v 1.5 0 -3.5
v 1.5 0 -4.5
v 1.5 0 -5.5
v 1.5 1 -3.5
v 1.5 1 -4.5
v 1.5 1 -5.5
v 2.5 0 2.5
v 2.5 0 1.5
v 2.5 0 -2.5
v 2.5 0 -3.5
v 2.5 1 2.5
v 2.5 1 1.5
v 2.5 1 -2.5
v 2.5 1 -3.5
v 2.5 1 -4.5
v 2.5 1 -5.5
v 2.5 2 -3.5
v 2.5 2 -4.5
v 2.5 2 -5.5
v 2.5 7 3.5
v 2.5 7 2.5
v 2.5 7 -4.5
v 2.5 7 -5.5
v 2.5 8 3.5
v 2.5 8 2.5
v 2.5 8 1.5
v 2.5 8 -3.5
v 2.5 8 -4.5
v 2.5 8 -5.5
v 2.5 9 2.5
v 2.5 9 1.5
v 2.5 9 -3.5
v 2.5 9 -4.5
v 3.5 0 -1.5
v 3.5 0 -2.5
v 3.5 1 -1.5
v 3.5 1 -2.5
v 3.5 1 -3.5
v 3.5 2 -2.5
v 3.5 2 -3.5
v 3.5 2 -4.5
v 3.5 2 -5.5
v 3.5 3 -3.5
v 3.5 3 -4.5
v 3.5 4 3.5
v 3.5 4 2.5
v 3.5 7 3.5
v 3.5 7 2.5
v 3.5 7 1.5
v 3.5 7 -3.5
v 3.5 7 -4.5
v 3.5 7 -5.5
v 3.5 8 2.5
v 3.5 8 1.5
v 3.5 8 -3.5
v 3.5 8 -4.5
v 3.5 9 1.5
v 3.5 9 -3.5
v 4.5 0 1.5
v 4.5 0 -1.5
v 4.5 1 2.5
v 4.5 1 1.5
v 4.5 1 -1.5
v 4.5 1 -2.5
v 4.5 2 -2.5
v 4.5 2 -3.5
v 4.5 3 -3.5
v 4.5 3 -4.5
v 4.5 7 2.5
v 4.5 7 1.5
v 4.5 7 -3.5
v 4.5 7 -4.5
v 4.5 8 1.5
v 4.5 8 -3.5
v -0.5 2 5.5
v -0.5 3 5.5
v 0.5 2 5.5
v 0.5 3 5.5
v -3.5 6 3.5
v -3.5 7 3.5
v -2.5 6 3.5
v -2.5 7 3.5
v -2.5 8 3.5
v -0.5 1 3.5
v -0.5 2 3.5
v 0.5 1 3.5
v 0.5 2 3.5
v 0.5 6 3.5
v 0.5 7 3.5
v 1.5 5 3.5
v 1.5 6 3.5
v 2.5 4 3.5
v 2.5 5 3.5
v 2.5 7 3.5
v 2.5 8 3.5
v 3.5 4 3.5
v 3.5 7 3.5
v -4.5 1 2.5
v -4.5 7 2.5
v -3.5 1 2.5
v -3.5 6 2.5
v -3.5 7 2.5
v -3.5 8 2.5
v -2.5 0 2.5
v -2.5 1 2.5
v -2.5 4 2.5
v -2.5 5 2.5
v -2.5 6 2.5
v -2.5 7 2.5
v -2.5 8 2.5
v -2.5 9 2.5
v -1.5 4 2.5
v -1.5 5 2.5
v -1.5 6 2.5
v -0.5 1 2.5
v -0.5 2 2.5
v -0.5 3 2.5
v -0.5 4 2.5
v -0.5 5 2.5
v -0.5 6 2.5
v 0.5 1 2.5
v 0.5 2 2.5
v 0.5 3 2.5
v 0.5 4 2.5
v 0.5 5 2.5
v 0.5 6 2.5
v 0.5 7 2.5
v 1.5 4 2.5
v 1.5 5 2.5
v 1.5 6 2.5
v 2.5 0 2.5
v 2.5 1 2.5
v 2.5 4 2.5
v 2.5 5 2.5
v 2.5 7 2.5
v 2.5 8 2.5
v 2.5 9 2.5
v 3.5 1 2.5
v 3.5 4 2.5
v 3.5 7 2.5
v 3.5 8 2.5
v 4.5 1 2.5
v 4.5 7 2.5
v -4.5 0 1.5
v -4.5 1 1.5
v -4.5 7 1.5
v -4.5 8 1.5
v -3.5 0 1.5
v -3.5 1 1.5
v -3.5 7 1.5
v -3.5 8 1.5
v -3.5 9 1.5
v -2.5 0 1.5
v -2.5 1 1.5
v -2.5 8 1.5
v -2.5 9 1.5
v 2.5 0 1.5
v 2.5 1 1.5
v 2.5 8 1.5
v 2.5 9 1.5
v 3.5 0 1.5
v 3.5 1 1.5
v 3.5 7 1.5
v 3.5 8 1.5
v 3.5 9 1.5
v 4.5 0 1.5
v 4.5 1 1.5
v 4.5 7 1.5
v 4.5 8 1.5
v -4.5 0 -1.5
v -4.5 1 -1.5
v -3.5 0 -1.5
v -3.5 1 -1.5
v 3.5 0 -1.5
v 3.5 1 -1.5
v 4.5 0 -1.5
v 4.5 1 -1.5
v -4.5 1 -2.5
v -4.5 2 -2.5
v -3.5 0 -2.5
v -3.5 1 -2.5
v -3.5 2 -2.5
v -2.5 0 -2.5
v -2.5 1 -2.5
v 2.5 0 -2.5
v 2.5 1 -2.5
v 3.5 0 -2.5
v 3.5 1 -2.5
v 3.5 2 -2.5
v 4.5 1 -2.5
v 4.5 2 -2.5
v -4.5 2 -3.5
v -4.5 3 -3.5
v -4.5 7 -3.5
v -4.5 8 -3.5
v -3.5 1 -3.5
v -3.5 2 -3.5
v -3.5 3 -3.5
v -3.5 7 -3.5
v -3.5 8 -3.5
v -3.5 9 -3.5
v -2.5 0 -3.5
v -2.5 1 -3.5
v -2.5 2 -3.5
v -2.5 8 -3.5
v -2.5 9 -3.5
v -1.5 0 -3.5
v -1.5 1 -3.5
v 1.5 0 -3.5
v 1.5 1 -3.5
v 2.5 0 -3.5
v 2.5 1 -3.5
v 2.5 2 -3.5
v 2.5 8 -3.5
v 2.5 9 -3.5
v 3.5 1 -3.5
v 3.5 2 -3.5
v 3.5 3 -3.5
v 3.5 7 -3.5
v 3.5 8 -3.5
v 3.5 9 -3.5
v 4.5 2 -3.5
v 4.5 3 -3.5
v 4.5 7 -3.5
v 4.5 8 -3.5
v -4.5 3 -4.5
v -4.5 7 -4.5
v -3.5 3 -4.5
v -3.5 7 -4.5
v -3.5 8 -4.5
v -2.5 7 -4.5
v -2.5 8 -4.5
v -2.5 9 -4.5
v 2.5 7 -4.5
v 2.5 8 -4.5
v 2.5 9 -4.5
v 3.5 3 -4.5
v 3.5 7 -4.5
v 3.5 8 -4.5
v 4.5 3 -4.5
v 4.5 7 -4.5
v -3.5 2 -5.5
v -3.5 7 -5.5
v -2.5 1 -5.5
v -2.5 2 -5.5
v -2.5 7 -5.5
v -2.5 8 -5.5
v -1.5 0 -5.5
v -1.5 1 -5.5
v 1.5 0 -5.5
v 1.5 1 -5.5
v 2.5 1 -5.5
v 2.5 2 -5.5
v 2.5 7 -5.5
v 2.5 8 -5.5
v 3.5 2 -5.5
v 3.5 7 -5.5
v -2.5 0 2.5
v 2.5 0 2.5
v -4.5 0 1.5
v -3.5 0 1.5
v -2.5 0 1.5
v 2.5 0 1.5
v 3.5 0 1.5
v 4.5 0 1.5
v -4.5 0 -1.5
v -3.5 0 -1.5
v 3.5 0 -1.5
v 4.5 0 -1.5
v -3.5 0 -2.5
v -2.5 0 -2.5
v 2.5 0 -2.5
v 3.5 0 -2.5
v -2.5 0 -3.5
v -1.5 0 -3.5
v 1.5 0 -3.5
v 2.5 0 -3.5
v -1.5 0 -4.5
v 1.5 0 -4.5
v -1.5 0 -5.5
v 1.5 0 -5.5
v -0.5 1 3.5
v 0.5 1 3.5
v -4.5 1 2.5
v -3.5 1 2.5
v -2.5 1 2.5
v -0.5 1 2.5
v 0.5 1 2.5
v 2.5 1 2.5
v 3.5 1 2.5
v 4.5 1 2.5
v -4.5 1 1.5
v -3.5 1 1.5
v -2.5 1 1.5
v 2.5 1 1.5
v 3.5 1 1.5
v 4.5 1 1.5
v -4.5 1 -1.5
v -3.5 1 -1.5
v 3.5 1 -1.5
v 4.5 1 -1.5
v -4.5 1 -2.5
v -3.5 1 -2.5
v -2.5 1 -2.5
v 2.5 1 -2.5
v 3.5 1 -2.5
v 4.5 1 -2.5
v -3.5 1 -3.5
v -2.5 1 -3.5
v -1.5 1 -3.5
v 1.5 1 -3.5
v 2.5 1 -3.5
v 3.5 1 -3.5
v -2.5 1 -4.5
v -1.5 1 -4.5
v 1.5 1 -4.5
v 2.5 1 -4.5
v -2.5 1 -5.5
v -1.5 1 -5.5
v 1.5 1 -5.5
v 2.5 1 -5.5
v -0.5 2 5.5
v 0.5 2 5.5
v -0.5 2 3.5
v 0.5 2 3.5
v -4.5 2 -2.5
v -3.5 2 -2.5
v 3.5 2 -2.5
v 4.5 2 -2.5
v -4.5 2 -3.5
v -3.5 2 -3.5
v -2.5 2 -3.5
v 2.5 2 -3.5
v 3.5 2 -3.5
v 4.5 2 -3.5
v -3.5 2 -4.5
v -2.5 2 -4.5
v 2.5 2 -4.5
v 3.5 2 -4.5
v -3.5 2 -5.5
v -2.5 2 -5.5
v 2.5 2 -5.5
v 3.5 2 -5.5
v -4.5 3 -3.5
v -3.5 3 -3.5
v 3.5 3 -3.5
v 4.5 3 -3.5
v -4.5 3 -4.5
v -3.5 3 -4.5
v 3.5 3 -4.5
v 4.5 3 -4.5
v 2.5 4 3.5
v 3.5 4 3.5
v 2.5 4 2.5
v 3.5 4 2.5
v 1.5 5 3.5
v 2.5 5 3.5
v 1.5 5 2.5
v 2.5 5 2.5
v -3.5 6 3.5
v -2.5 6 3.5
v 0.5 6 3.5
v 1.5 6 3.5
v -3.5 6 2.5
v -2.5 6 2.5
v 0.5 6 2.5
v 1.5 6 2.5
v -2.5 7 3.5
v 0.5 7 3.5
v -2.5 7 2.5
v 0.5 7 2.5
v -0.5 3 5.5
v 0.5 3 5.5
v -0.5 3 2.5
v 0.5 3 2.5
v -3.5 7 3.5
v -2.5 7 3.5
v 2.5 7 3.5
v 3.5 7 3.5
v -4.5 7 2.5
v -3.5 7 2.5
v -2.5 7 2.5
v 2.5 7 2.5
v 3.5 7 2.5
v 4.5 7 2.5
v -4.5 7 1.5
v -3.5 7 1.5
v 3.5 7 1.5
v 4.5 7 1.5
v -4.5 7 -3.5
v -3.5 7 -3.5
v 3.5 7 -3.5
v 4.5 7 -3.5
v -4.5 7 -4.5
v -3.5 7 -4.5
v -2.5 7 -4.5
v 2.5 7 -4.5
v 3.5 7 -4.5
v 4.5 7 -4.5
v -3.5 7 -5.5
v -2.5 7 -5.5
v 2.5 7 -5.5
v 3.5 7 -5.5
v -2.5 8 3.5
v 2.5 8 3.5
v -3.5 8 2.5
v -2.5 8 2.5
v 2.5 8 2.5
v 3.5 8 2.5
v -4.5 8 1.5
v -3.5 8 1.5
v -2.5 8 1.5
v 2.5 8 1.5
v 3.5 8 1.5
v 4.5 8 1.5
v -4.5 8 -3.5
v -3.5 8 -3.5
v -2.5 8 -3.5
v 2.5 8 -3.5
v 3.5 8 -3.5
v 4.5 8 -3.5
v -3.5 8 -4.5
v -2.5 8 -4.5
v 2.5 8 -4.5
v 3.5 8 -4.5
v -2.5 8 -5.5
v 2.5 8 -5.5
v -2.5 9 2.5
v 2.5 9 2.5
v -3.5 9 1.5
v -2.5 9 1.5
v 2.5 9 1.5
v 3.5 9 1.5
v -3.5 9 -3.5
v -2.5 9 -3.5
v 2.5 9 -3.5
v 3.5 9 -3.5
v -2.5 9 -4.5
v 2.5 9 -4.5

# faces
f 4/1/1 2/1/1 1/1/1
f 5/1/1 2/1/1 4/1/1
f 7/1/1 4/1/1 3/1/1
f 7/1/1 6/1/1 5/1/1
f 7/1/1 5/1/1 4/1/1
f 9/1/1 8/1/1 7/1/1
f 11/1/1 7/1/1 3/1/1
f 11/1/1 10/1/1 9/1/1
f 11/1/1 9/1/1 7/1/1
f 12/1/1 10/1/1 11/1/1
f 13/1/1 10/1/1 12/1/1
f 14/1/1 10/1/1 13/1/1
f 15/1/1 13/1/1 12/1/1
f 16/1/1 13/1/1 15/1/1
f 19/5/1 18/5/1 17/5/1
f 20/5/1 18/5/1 19/5/1
f 22/5/1 21/5/1 20/5/1
f 23/5/1 21/5/1 22/5/1
f 26/5/1 24/5/1 23/5/1
f 27/1/1 25/1/1 24/1/1
f 27/5/1 24/5/1 26/5/1
f 30/1/1 29/1/1 28/1/1
f 31/1/1 29/1/1 30/1/1
f 34/1/1 25/1/1 27/1/1
f 35/1/1 25/1/1 34/1/1
f 36/1/1 32/1/1 31/1/1
f 37/1/1 32/1/1 36/1/1
f 38/1/1 34/1/1 33/1/1
f 39/1/1 34/1/1 38/1/1
f 40/1/1 38/1/1 37/1/1
f 41/1/1 38/1/1 40/1/1
f 46/5/1 43/5/1 42/5/1
f 47/5/1 43/5/1 46/5/1
f 48/5/1 45/5/1 44/5/1
f 49/5/1 45/5/1 48/5/1
f 52/5/1 50/5/1 49/5/1
f 53/1/1 51/1/1 50/1/1
f 53/5/1 50/5/1 52/5/1
f 54/1/1 51/1/1 53/1/1
f 59/1/1 56/1/1 55/1/1
f 60/1/1 56/1/1 59/1/1
f 63/1/1 58/1/1 57/1/1
f 64/1/1 58/1/1 63/1/1
f 65/1/1 61/1/1 60/1/1
f 66/1/1 61/1/1 65/1/1
f 67/1/1 63/1/1 62/1/1
f 68/1/1 63/1/1 67/1/1
f 72/5/1 70/5/1 69/5/1
f 73/1/1 71/1/1 70/1/1
f 73/5/1 70/5/1 72/5/1
f 74/1/1 71/1/1 73/1/1
f 78/3/1 76/3/1 75/3/1
f 79/3/1 76/3/1 78/3/1
f 80/4/1 78/4/1 77/4/1
f 80/4/1 79/4/1 78/4/1
f 81/4/1 79/4/1 80/4/1
f 84/1/1 83/1/1 82/1/1
f 85/1/1 83/1/1 84/1/1
f 88/1/1 87/1/1 86/1/1
f 89/1/1 87/1/1 88/1/1
f 92/1/1 91/1/1 90/1/1
f 93/1/1 91/1/1 92/1/1
f 94/1/2 95/1/2 96/1/2
f 96/1/2 95/1/2 97/1/2
f 98/3/2 99/3/2 101/3/2
f 101/3/2 99/3/2 102/3/2
f 100/4/2 101/4/2 103/4/2
f 101/4/2 102/4/2 103/4/2
f 103/4/2 102/4/2 104/4/2
f 105/5/2 106/5/2 108/5/2
f 106/1/2 107/1/2 109/1/2
f 108/5/2 106/5/2 109/5/2
f 109/1/2 107/1/2 110/1/2
f 111/5/2 112/5/2 115/5/2
f 115/5/2 112/5/2 116/5/2
f 113/5/2 114/5/2 117/5/2
f 117/5/2 114/5/2 118/5/2
f 118/5/2 119/5/2 121/5/2
f 119/1/2 120/1/2 122/1/2
f 121/5/2 119/5/2 122/5/2
f 122/1/2 120/1/2 123/1/2
f 124/1/2 125/1/2 128/1/2
f 128/1/2 125/1/2 129/1/2
f 126/1/2 127/1/2 132/1/2
f 132/1/2 127/1/2 133/1/2
f 129/1/2 130/1/2 134/1/2
f 134/1/2 130/1/2 135/1/2
f 131/1/2 132/1/2 136/1/2
f 136/1/2 132/1/2 137/1/2
f 138/5/2 139/5/2 140/5/2
f 140/5/2 139/5/2 141/5/2
f 141/5/2 142/5/2 143/5/2
f 143/5/2 142/5/2 144/5/2
f 144/5/2 145/5/2 147/5/2
f 145/1/2 146/1/2 148/1/2
f 147/5/2 145/5/2 148/5/2
f 149/1/2 150/1/2 151/1/2
f 151/1/2 150/1/2 152/1/2
f 148/1/2 146/1/2 155/1/2
f 155/1/2 146/1/2 156/1/2
f 152/1/2 153/1/2 157/1/2
f 157/1/2 153/1/2 158/1/2
f 154/1/2 155/1/2 159/1/2
f 159/1/2 155/1/2 160/1/2
f 158/1/2 159/1/2 161/1/2
f 161/1/2 159/1/2 162/1/2
f 163/1/2 164/1/2 166/1/2
f 166/1/2 164/1/2 167/1/2
f 165/1/2 166/1/2 169/1/2
f 167/1/2 168/1/2 169/1/2
f 166/1/2 167/1/2 169/1/2
f 169/1/2 170/1/2 171/1/2
f 165/1/2 169/1/2 173/1/2
f 171/1/2 172/1/2 173/1/2
f 169/1/2 171/1/2 173/1/2
f 173/1/2 172/1/2 174/1/2
f 174/1/2 172/1/2 175/1/2
f 175/1/2 172/1/2 176/1/2
f 174/1/2 175/1/2 177/1/2
f 177/1/2 175/1/2 178/1/2
f 181/4/3 180/4/3 179/4/3
f 182/4/3 180/4/3 181/4/3
f 185/1/3 184/1/3 183/1/3
f 186/1/3 184/1/3 185/1/3
f 190/3/3 189/3/3 188/3/3
f 191/3/3 189/3/3 190/3/3
f 193/1/3 187/1/3 186/1/3
f 195/1/3 193/1/3 192/1/3
f 197/1/3 195/1/3 194/1/3
f 198/1/3 187/1/3 193/1/3
f 198/1/3 193/1/3 195/1/3
f 198/1/3 195/1/3 197/1/3
f 199/1/3 187/1/3 198/1/3
f 200/1/3 197/1/3 196/1/3
f 200/1/3 198/1/3 197/1/3
f 201/1/3 198/1/3 200/1/3
f 204/1/3 203/1/3 202/1/3
f 205/1/3 203/1/3 204/1/3
f 206/1/3 203/1/3 205/1/3
f 209/5/3 205/5/3 204/5/3
f 210/5/3 205/5/3 209/5/3
f 211/5/3 205/5/3 210/5/3
f 212/5/3 205/5/3 211/5/3
f 213/1/3 207/1/3 206/1/3
f 214/1/3 207/1/3 213/1/3
f 216/5/3 209/5/3 208/5/3
f 216/5/3 210/5/3 209/5/3
f 216/2/3 211/2/3 210/2/3
f 217/1/3 212/1/3 211/1/3
f 217/2/3 211/2/3 216/2/3
f 218/5/3 213/5/3 212/5/3
f 218/1/3 212/1/3 217/1/3
f 219/5/3 216/5/3 208/5/3
f 220/5/3 216/5/3 219/5/3
f 221/5/3 216/5/3 220/5/3
f 222/6/3 217/6/3 216/6/3
f 222/5/3 216/5/3 221/5/3
f 223/7/3 218/7/3 217/7/3
f 223/6/3 217/6/3 222/6/3
f 224/5/3 213/5/3 218/5/3
f 224/7/3 218/7/3 223/7/3
f 225/5/3 219/5/3 208/5/3
f 227/5/3 223/5/3 222/5/3
f 227/5/3 222/5/3 221/5/3
f 227/5/3 224/5/3 223/5/3
f 228/5/3 224/5/3 227/5/3
f 229/5/3 224/5/3 228/5/3
f 230/5/3 213/5/3 224/5/3
f 230/5/3 224/5/3 229/5/3
f 231/5/3 213/5/3 230/5/3
f 232/5/3 226/5/3 225/5/3
f 232/6/3 229/6/3 228/6/3
f 232/5/3 227/5/3 226/5/3
f 232/5/3 228/5/3 227/5/3
f 233/1/3 230/1/3 229/1/3
f 233/6/3 229/6/3 232/6/3
f 234/1/3 230/1/3 233/1/3
f 235/5/3 232/5/3 225/5/3
f 235/5/3 225/5/3 208/5/3
f 236/5/3 232/5/3 235/5/3
f 237/2/3 233/2/3 232/2/3
f 237/5/3 232/5/3 236/5/3
f 238/2/3 233/2/3 237/2/3
f 240/1/3 215/1/3 214/1/3
f 241/1/3 215/1/3 240/1/3
f 242/5/3 237/5/3 236/5/3
f 243/5/3 237/5/3 242/5/3
f 244/1/3 240/1/3 239/1/3
f 245/1/3 240/1/3 244/1/3
f 246/1/3 243/1/3 242/1/3
f 246/1/3 244/1/3 243/1/3
f 247/1/3 244/1/3 246/1/3
f 252/1/3 249/1/3 248/1/3
f 253/1/3 249/1/3 252/1/3
f 254/1/3 251/1/3 250/1/3
f 255/1/3 251/1/3 254/1/3
f 257/5/3 253/5/3 252/5/3
f 258/5/3 253/5/3 257/5/3
f 259/1/3 256/1/3 255/1/3
f 260/1/3 256/1/3 259/1/3
f 265/5/3 262/5/3 261/5/3
f 266/5/3 262/5/3 265/5/3
f 268/1/3 264/1/3 263/1/3
f 269/1/3 264/1/3 268/1/3
f 270/1/3 266/1/3 265/1/3
f 271/1/3 266/1/3 270/1/3
f 272/1/3 268/1/3 267/1/3
f 273/1/3 268/1/3 272/1/3
f 274/1/4 275/1/4 276/1/4
f 276/1/4 275/1/4 277/1/4
f 278/1/4 279/1/4 280/1/4
f 280/1/4 279/1/4 281/1/4
f 282/1/4 283/1/4 285/1/4
f 285/1/4 283/1/4 286/1/4
f 284/5/4 285/5/4 287/5/4
f 287/5/4 285/5/4 288/5/4
f 289/5/4 290/5/4 291/5/4
f 291/5/4 290/5/4 292/5/4
f 292/1/4 293/1/4 294/1/4
f 294/1/4 293/1/4 295/1/4
f 296/1/4 297/1/4 301/1/4
f 301/1/4 297/1/4 302/1/4
f 298/1/4 299/1/4 303/1/4
f 303/1/4 299/1/4 304/1/4
f 300/5/4 301/5/4 307/5/4
f 307/5/4 301/5/4 308/5/4
f 304/1/4 305/1/4 309/1/4
f 309/1/4 305/1/4 310/1/4
f 306/5/4 307/5/4 311/5/4
f 311/5/4 307/5/4 312/5/4
f 313/5/4 314/5/4 315/5/4
f 315/5/4 314/5/4 316/5/4
f 316/5/4 317/5/4 320/5/4
f 320/5/4 317/5/4 321/5/4
f 318/1/4 319/1/4 324/1/4
f 324/1/4 319/1/4 325/1/4
f 321/1/4 322/1/4 326/1/4
f 326/1/4 322/1/4 327/1/4
f 323/1/4 324/1/4 328/1/4
f 328/1/4 324/1/4 329/1/4
f 330/1/4 331/1/4 332/1/4
f 332/1/4 331/1/4 333/1/4
f 333/1/4 334/1/4 335/1/4
f 335/1/4 334/1/4 336/1/4
f 336/1/4 337/1/4 339/1/4
f 339/1/4 337/1/4 340/1/4
f 338/1/4 339/1/4 342/1/4
f 342/1/4 339/1/4 343/1/4
f 341/1/4 342/1/4 344/1/4
f 344/1/4 342/1/4 345/1/4
f 346/1/4 347/1/4 349/1/4
f 349/1/4 347/1/4 350/1/4
f 348/1/4 349/1/4 353/1/4
f 350/1/4 351/1/4 353/1/4
f 349/1/4 350/1/4 353/1/4
f 352/1/4 353/1/4 354/1/4
f 353/1/4 351/1/4 355/1/4
f 354/1/4 353/1/4 355/1/4
f 355/1/4 351/1/4 356/1/4
f 356/1/4 351/1/4 357/1/4
f 357/1/4 351/1/4 358/1/4
f 358/1/4 351/1/4 359/1/4
f 357/1/4 358/1/4 360/1/4
f 360/1/4 358/1/4 361/1/4
f 366/5/5 363/5/5 362/5/5
f 367/5/5 363/5/5 366/5/5
f 370/1/5 365/1/5 364/1/5
f 371/5/5 366/5/5 365/5/5
f 371/1/5 365/1/5 370/1/5
f 371/5/5 367/5/5 366/5/5
f 371/5/5 368/5/5 367/5/5
f 372/1/5 369/1/5 368/1/5
f 372/5/5 368/5/5 371/5/5
f 373/1/5 369/1/5 372/1/5
f 374/5/5 372/5/5 371/5/5
f 375/5/5 372/5/5 374/5/5
f 376/5/5 372/5/5 375/5/5
f 377/5/5 372/5/5 376/5/5
f 378/5/5 376/5/5 375/5/5
f 379/5/5 376/5/5 378/5/5
f 380/5/5 376/5/5 379/5/5
f 381/5/5 376/5/5 380/5/5
f 382/5/5 380/5/5 379/5/5
f 383/5/5 380/5/5 382/5/5
f 384/1/5 383/1/5 382/1/5
f 385/1/5 383/1/5 384/1/5
f 391/3/5 387/3/5 386/3/5
f 392/3/5 387/3/5 391/3/5
f 396/1/5 389/1/5 388/1/5
f 397/5/5 390/5/5 389/5/5
f 397/1/5 389/1/5 396/1/5
f 398/5/5 390/5/5 397/5/5
f 399/5/5 394/5/5 393/5/5
f 400/1/5 395/1/5 394/1/5
f 400/5/5 394/5/5 399/5/5
f 401/1/5 395/1/5 400/1/5
f 406/1/5 403/1/5 402/1/5
f 407/1/5 403/1/5 406/1/5
f 410/1/5 405/1/5 404/1/5
f 411/1/5 405/1/5 410/1/5
f 412/5/5 408/5/5 407/5/5
f 413/5/5 408/5/5 412/5/5
f 416/5/5 410/5/5 409/5/5
f 417/5/5 410/5/5 416/5/5
f 418/5/5 414/5/5 413/5/5
f 419/5/5 414/5/5 418/5/5
f 420/5/5 416/5/5 415/5/5
f 421/5/5 416/5/5 420/5/5
f 422/1/5 419/1/5 418/1/5
f 423/1/5 419/1/5 422/1/5
f 424/1/5 421/1/5 420/1/5
f 425/1/5 421/1/5 424/1/5
f 428/4/5 427/4/5 426/4/5
f 429/4/5 427/4/5 428/4/5
f 434/1/5 431/1/5 430/1/5
f 435/1/5 431/1/5 434/1/5
f 438/1/5 433/1/5 432/1/5
f 439/1/5 433/1/5 438/1/5
f 440/5/5 436/5/5 435/5/5
f 441/5/5 436/5/5 440/5/5
f 442/5/5 438/5/5 437/5/5
f 443/5/5 438/5/5 442/5/5
f 444/1/5 441/1/5 440/1/5
f 445/1/5 441/1/5 444/1/5
f 446/1/5 443/1/5 442/1/5
f 447/1/5 443/1/5 446/1/5
f 452/1/5 449/1/5 448/1/5
f 453/1/5 449/1/5 452/1/5
f 454/1/5 451/1/5 450/1/5
f 455/1/5 451/1/5 454/1/5
f 458/1/5 457/1/5 456/1/5
f 459/1/5 457/1/5 458/1/5
f 462/1/5 461/1/5 460/1/5
f 463/1/5 461/1/5 462/1/5
f 468/1/5 465/1/5 464/1/5
f 469/1/5 465/1/5 468/1/5
f 470/1/5 467/1/5 466/1/5
f 471/1/5 467/1/5 470/1/5
f 474/1/5 473/1/5 472/1/5
f 475/1/5 473/1/5 474/1/5
f 476/4/6 477/4/6 478/4/6
f 478/4/6 477/4/6 479/4/6
f 480/1/6 481/1/6 485/1/6
f 485/1/6 481/1/6 486/1/6
f 482/1/6 483/1/6 487/1/6
f 487/1/6 483/1/6 488/1/6
f 484/1/6 485/1/6 490/1/6
f 490/1/6 485/1/6 491/1/6
f 488/1/6 489/1/6 492/1/6
f 492/1/6 489/1/6 493/1/6
f 494/1/6 495/1/6 498/1/6
f 498/1/6 495/1/6 499/1/6
f 496/1/6 497/1/6 502/1/6
f 502/1/6 497/1/6 503/1/6
f 499/1/6 500/1/6 504/1/6
f 504/1/6 500/1/6 505/1/6
f 501/1/6 502/1/6 506/1/6
f 506/1/6 502/1/6 507/1/6
f 508/1/6 509/1/6 511/1/6
f 511/1/6 509/1/6 512/1/6
f 510/1/6 511/1/6 515/1/6
f 515/1/6 511/1/6 516/1/6
f 512/1/6 513/1/6 517/1/6
f 517/1/6 513/1/6 518/1/6
f 514/1/6 515/1/6 520/1/6
f 520/1/6 515/1/6 521/1/6
f 518/1/6 519/1/6 524/1/6
f 524/1/6 519/1/6 525/1/6
f 521/1/6 522/1/6 526/1/6
f 526/1/6 522/1/6 527/1/6
f 523/1/6 524/1/6 528/1/6
f 528/1/6 524/1/6 529/1/6
f 527/1/6 528/1/6 530/1/6
f 530/1/6 528/1/6 531/1/6
f 532/1/6 533/1/6 535/1/6
f 535/1/6 533/1/6 536/1/6
f 534/1/6 535/1/6 538/1/6
f 536/1/6 537/1/6 538/1/6
f 535/1/6 536/1/6 538/1/6
f 538/1/6 537/1/6 539/1/6
f 539/1/6 537/1/6 540/1/6
f 540/1/6 537/1/6 541/1/6
f 539/1/6 540/1/6 542/1/6
f 542/1/6 540/1/6 543/1/6
